<?xml version="1.0" encoding="utf-8"?>
<svg id="svg2" viewBox="34.067 140.275 403.811 365.402" xmlns="http://www.w3.org/2000/svg">
  <desc>Source: openclipart.org/detail/209545</desc>
  <title>React Logo</title>
  <g stroke="#61dafb" stroke-width="1" fill="none" transform="matrix(17.302139, 0, 0, 17.706633, 234.908844, 323.509827)" style="">
    <ellipse rx="11" ry="4.2" style=""/>
    <ellipse rx="11" ry="4.2" transform="rotate(60)" style=""/>
    <ellipse rx="11" ry="4.2" transform="rotate(120)" style=""/>
  </g>
  <g transform="matrix(1.040598, 0, 0, 1.057371, -17.086731, -8.216805)" style="">
    <path d="M 210.45 311.365 C 211.733 294.521 226.198 281.246 243.848 281.246 C 261.502 281.246 275.963 294.521 277.246 311.365 L 277.341 311.365 L 277.341 313.806 C 277.341 331.789 262.345 346.367 243.848 346.367 C 225.35 346.367 210.356 331.789 210.356 313.806 L 210.356 311.365 L 210.45 311.365 Z M 243.848 286.13 C 228.97 286.13 216.76 297.224 215.491 311.365 L 272.21 311.365 C 270.937 297.224 258.725 286.13 243.848 286.13 Z" style="fill: rgb(97, 218, 251);"/>
    <path style="fill: rgb(97, 218, 251);" d="M 260.193 287.601 L 264.085 280.715 C 264.467 280.039 264.209 279.193 263.511 278.824 C 262.813 278.454 261.935 278.702 261.554 279.378 L 257.697 286.202 C 253.532 284.117 248.817 282.921 243.803 282.921 C 238.789 282.921 234.074 284.117 229.91 286.202 L 226.052 279.378 C 225.669 278.704 224.793 278.452 224.096 278.824 C 223.398 279.193 223.139 280.039 223.522 280.715 L 227.414 287.601 C 219.063 292.813 213.521 301.868 213.521 312.19 L 274.085 312.19 C 274.085 301.868 268.543 292.813 260.193 287.601 Z M 230.825 302.434 C 229.233 302.434 227.941 301.185 227.941 299.646 C 227.941 298.108 229.233 296.859 230.825 296.859 C 232.417 296.859 233.709 298.108 233.709 299.646 C 233.709 301.185 232.417 302.434 230.825 302.434 Z M 256.781 302.434 C 255.189 302.434 253.897 301.185 253.897 299.646 C 253.897 298.108 255.189 296.859 256.781 296.859 C 258.373 296.859 259.665 298.108 259.665 299.646 C 259.665 301.185 258.373 302.434 256.781 302.434 Z"/>
  </g>
</svg>